# Blender 3.5.0
# www.blender.org
mtllib enemy.mtl
o Cube
v 0.000000 0.003821 1.414214
v -0.000803 -1.000000 0.004601
v -1.414214 0.001689 0.000000
v -0.000834 1.000000 -0.000963
v 1.414214 0.002465 0.000000
v 0.000000 0.012510 -1.414214
vn -0.4998 0.7081 0.4988
vn 0.4984 -0.7058 -0.5034
vn -0.5011 -0.7048 0.5022
vn 0.5011 -0.7050 0.5018
vn 0.5007 0.7097 -0.4956
vn -1.0000 -0.0000 -0.0006
vn 0.0013 -0.0028 -1.0000
vn 0.4992 0.7087 0.4986
vt 0.405142 0.517569
vt 0.425713 0.983790
vt 0.458379 0.550407
vt 0.016210 0.268832
vt 0.425713 0.549991
vt 0.812541 0.549991
vt 0.760270 0.268444
vt 0.016210 0.694543
vt 0.760033 0.517569
vt 0.406466 0.266280
vt 0.458134 0.904607
vt 0.372721 0.517570
vt 0.406219 0.016218
vt 0.812541 0.905266
vt 0.372721 0.016210
vt 0.758951 0.016210
s 0
usemtl Material
f 3/9/1 1/1/1 4/10/1
f 5/12/2 2/4/2 6/15/2
f 2/5/3 1/2/3 3/8/3
f 5/14/4 1/3/4 2/6/4
f 4/10/5 5/13/5 6/16/5
f 6/16/6 2/7/6 4/10/6
f 2/7/7 3/9/7 4/10/7
f 5/14/8 4/11/8 1/3/8
